<svg width="122.88" height="122.88" xmlns="http://www.w3.org/2000/svg">
 <style type="text/css">
  <![CDATA[
	.st0{fill:#FF0000;}
	.st1{fill:#FFFFFF;}
]]>
 </style>

 <g>
  <title>background</title>
  <rect fill="none" id="canvas_background" height="514" width="514" y="-1" x="-1"/>
 </g>
 <g>
  <title>Layer 1</title>
  <g id="svg_1">
   <path id="svg_2" d="m122.88,61.44c0,-33.93 -27.51,-61.44 -61.44,-61.44c-33.93,0 -61.44,27.51 -61.44,61.44c0,33.93 27.51,61.44 61.44,61.44c33.93,0 61.44,-27.51 61.44,-61.44l0,0z" class="st0"/>
   <path id="svg_3" d="m61.44,32.12c16.13,0 29.32,13.13 29.32,29.32c0,16.2 -13.13,29.32 -29.32,29.32s-29.32,-13.12 -29.32,-29.32c0,-16.2 13.19,-29.32 29.32,-29.32l0,0l0,0zm0,-2.8c-17.73,0 -32.12,14.38 -32.12,32.12c0,17.73 14.38,32.12 32.12,32.12s32.12,-14.38 32.12,-32.12c0,-17.73 -14.39,-32.12 -32.12,-32.12l0,0l0,0z" class="st1"/>
   <polygon id="svg_4" points="50.27,77.5 77.5,60.74 50.27,45.38 50.27,77.5" class="st1"/>
  </g>
 </g>
</svg>